<?xml version="1.0" standalone="no"?>
<!DOCTYPE svg PUBLIC "-//W3C//DTD SVG 20010904//EN"
 "http://www.w3.org/TR/2001/REC-SVG-20010904/DTD/svg10.dtd">
<svg version="1.0" xmlns="http://www.w3.org/2000/svg"
 width="225.000000pt" height="225.000000pt" viewBox="0 0 225.000000 225.000000"
 preserveAspectRatio="xMidYMid meet">

<g transform="translate(0.000000,225.000000) scale(0.100000,-0.100000)"
fill="#000000" stroke="none">
<path d="M162 2088 c-17 -17 -17 -1909 0 -1926 12 -12 134 -17 162 -6 14 6 16
100 16 969 0 869 -2 963 -16 969 -28 11 -150 6 -162 -6z"/>
<path d="M1923 2093 c-10 -4 -13 -207 -13 -968 0 -869 2 -963 16 -969 28 -11
150 -6 162 6 17 17 17 1909 0 1926 -12 12 -139 16 -165 5z"/>
<path d="M1441 1576 l-193 -193 -46 13 c-106 32 -200 7 -283 -75 -82 -83 -107
-177 -75 -283 l13 -46 -188 -188 c-104 -104 -189 -193 -189 -199 0 -13 112
-125 125 -125 6 0 95 85 199 189 l188 188 46 -13 c59 -18 106 -18 172 2 75 22
162 109 184 184 19 63 19 120 2 175 l-13 40 194 195 193 195 -68 68 -67 67
-194 -194z"/>
</g>
</svg>
