<svg width="254" height="146" xmlns="http://www.w3.org/2000/svg">
 <!-- Generator: Sketch 39.1 (31720) - http://www.bohemiancoding.com/sketch -->
 <title>trilab</title>
 <desc>Created with Sketch.</desc>

 <g>
  <title>background</title>
  <rect fill="none" id="canvas_background" height="148" width="256" y="-1" x="-1"/>
 </g>
 <g>
  <title>Layer 1</title>
  <g fill-rule="evenodd" fill="none" id="zdrojove-soubory">
   <g fill="#000000" id="trilab">
    <g id="Group-4">
     <g id="Group-11">
      <path id="Combined-Shape" d="m180.06251,41.91991c-1.66179,-1.87757 -3.00894,-1.37696 -3.00894,1.1373l0,68.78712c0,2.50569 1.34868,3.01314 3.00894,1.1373l3.05622,-3.45308c1.6618,-1.87758 3.00895,-5.42415 3.00895,-7.93624l0,-48.28308c0,-2.50548 -1.34869,-6.0604 -3.00895,-7.93624l-3.05622,-3.45308z"/>
      <path id="Path" d="m198.68761,64.35612c7.08156,7.02554 7.07973,18.41801 0.01524,25.42661l-0.37468,0.37171c-1.72665,1.71299 -3.12637,1.13064 -3.12637,-1.29758l0,-13.07904l0,-10.47586c0,-2.4323 1.39772,-3.0174 3.12589,-1.30291l0.35992,0.35707z"/>
      <path id="Path" d="m163.15014,33.13833c-2.34434,-0.87978 -4.24481,0.43673 -4.24481,2.93854l0,82.0027c0,2.5027 1.90224,3.81904 4.24481,2.94161l0.5845,-0.21893c2.34434,-0.87809 4.24481,-3.63105 4.24481,-6.12019l0,-75.2011c0,-2.502 -1.90223,-5.24415 -4.24481,-6.12328l-0.5845,-0.21935z"/>
      <path id="Path" d="m145.04648,32.27922c-2.36895,0.79708 -4.28937,3.48008 -4.28937,5.98325l0,77.63369c0,2.50738 1.94662,5.10889 4.35101,5.81155l0.37209,0.10873c2.403,0.70225 4.35101,-0.7577 4.35101,-3.2604l0,-82.95689c0,-2.50292 -1.98899,-4.13021 -4.40507,-3.43809l-0.37967,0.11816z"/>
      <path id="Path" d="m126.78738,39.65852c-2.30773,0.98061 -4.1785,3.81344 -4.1785,6.31679l0,62.21546c0,2.50806 1.86916,5.33472 4.1785,6.31507l0.71711,0.30442c2.30772,0.97966 4.1785,-0.25853 4.1785,-2.75763l0,-69.94291c0,-2.50266 -1.86916,-3.73721 -4.1785,-2.75592l-0.71711,0.30472z"/>
      <path id="Path" d="m108.63915,47.37013c-2.30773,0.98061 -4.1785,3.79743 -4.1785,6.3131l0,46.80707c0,2.50602 1.86916,5.33103 4.1785,6.31138l0.71711,0.30442c2.30772,0.97966 4.1785,-0.25663 4.1785,-2.76099l0,-35.85188l0,-18.67444c0,-2.50125 -1.86916,-3.73467 -4.1785,-2.75338l-0.71711,0.30472z"/>
      <path id="Path" d="m90.49092,55.08174c-2.30772,0.9806 -4.1785,3.81001 -4.1785,6.31931l0,31.37887c0,2.50945 1.86916,5.33725 4.1785,6.31759l0.71711,0.30443c2.30772,0.97966 4.1785,-0.26539 4.1785,-2.75829l0,-39.11005c0,-2.50302 -1.86916,-3.73787 -4.1785,-2.75658l-0.71711,0.30472z"/>
      <path id="Path" d="m73.0598,62.48863c2.30772,-0.9806 4.1785,0.24893 4.1785,2.76218l0,23.68307c0,2.50612 -1.86916,3.74424 -4.1785,2.76389l-0.71711,-0.30442c-2.30772,-0.97966 -4.1785,-3.80261 -4.1785,-6.31031l0,-15.97767c0,-2.50543 1.86916,-5.33073 4.1785,-6.31202l0.71711,-0.30472z"/>
      <path id="Path" d="m55.90289,70.00369c-7.86974,3.91845 -7.87138,10.2708 0.00026,14.18641l0,0c1.75127,0.87114 3.17096,-0.44603 3.17096,-2.95661l0,-8.27484c0,-2.50404 -1.82633,-3.62459 -3.17122,-2.95496l0,0z"/>
     </g>
     <g id="Group-12">
      <path id="TRILAB" d="m31.9,220l0,-65.8l14.2,0l0,-4.2l-33.1,0l0,4.2l14.3,0l0,65.8l4.6,0zm23.75996,-70l0,70l4.6,0l0,-31.3l7.3,0c8,0 13.1,2.6 13.1,11.9l0,11c0,3.8 0.3,6.3 1.5,8.4l4.8,0c-1.5,-2.3 -1.7,-5.5 -1.7,-8.4l0,-10.9c0,-7.6 -2.9,-12.7 -10.1,-14.3c6.9,-1.6 10.1,-6.3 10.1,-14.5l0,-6.1c0,-9.9 -4.3,-15.8 -15,-15.8l-14.6,0zm4.6001,34.5l0,-30.3l9.9,0c7.6,0 10.5,4.5 10.5,12l0,6.6c0,9.4 -4.8,11.7 -13,11.7l-7.4,0zm39.5498,-34.5l0,70l4.6,0l0,-70l-4.6,0zm20.15679,70l29.1,0l0,-10l-18.1,0l0,-60l-11,0l0,70zm64.85317,-70l-16.1,0l-11.2,70l10.1,0l1.9,-12.7l13.5,0l1.9,12.7l11.1,0l-11.2,-70zm-8.59961,12.4l5.30001,35.4l-10.6,0l5.29999,-35.4zm46.05754,-12.4l-16.6,0l0,70l17.3,0c11,0 16.7,-5.8 16.7,-16.6l0,-5.7c0,-7.4 -2.3,-12.7 -8.2,-15c4.9,-2.3 7.1,-6.9 7.1,-14.1l0,-2.5c0,-10.8 -4.9,-16.1 -16.3,-16.1l0,0zm-0.7,38.5c5,0 7.1,2 7.1,8.5l0,6.1c0,5.2 -2,6.9 -5.7,6.9l-6.3,0l0,-21.5l4.9,0zm0.4,-28.5c3.9,0 5.6,2.2 5.6,7.2l0,3.9c0,5.6 -2.5,7.4 -6.6,7.4l-4.3,0l0,-18.5l5.3,0z"/>
     </g>
    </g>
   </g>
  </g>
 </g>
</svg>